<svg width="45" height="44" viewBox="0 0 45 44" fill="none" xmlns="http://www.w3.org/2000/svg">
<path d="M19.4007 7.95703V9.69143C19.4007 10.2251 17.9553 11.2035 15.5538 11.2035C13.1524 11.2035 11.707 10.2251 11.707 9.69143V7.95703C12.7299 8.46846 14.0418 8.77976 15.5538 8.77976C17.0659 8.802 18.4 8.49069 19.4007 7.95703Z" fill="#9E9E9E"/>
<path d="M24.1321 12.1816H22.1309V19.5862H24.1321V12.1816Z" fill="#86868B"/>
<path d="M15.5733 37.0394C10.7703 37.0394 6.99023 34.8603 6.99023 32.1031V12.1797H8.99147V32.1031C8.99147 33.4817 11.7932 35.0382 15.5733 35.0382V37.0394Z" fill="#86868B"/>
<path d="M15.5733 17.1182C10.7481 17.1182 6.99023 14.9613 6.99023 12.1819C6.99023 10.6031 8.21321 9.15777 10.3256 8.24609L11.1261 10.0917C9.79196 10.6698 8.99147 11.4481 8.99147 12.2041C8.99147 13.5827 11.7932 15.1392 15.5733 15.1392C19.3534 15.1392 22.1551 13.5827 22.1551 12.2041C22.1551 11.4703 21.3546 10.6698 20.0205 10.0917L20.821 8.24609C22.9334 9.15777 24.1564 10.6031 24.1564 12.1819C24.1341 14.9613 20.3763 17.1182 15.5733 17.1182Z" fill="#86868B"/>
<path d="M21.4004 5.28711V9.71205C21.4004 9.88994 21.3782 10.0678 21.3337 10.2457C20.9335 11.9801 18.5765 13.2031 15.5746 13.2031C12.7951 13.2031 10.5938 12.158 9.92669 10.646C9.79327 10.3347 9.72656 10.0234 9.72656 9.68982V5.28711H11.7278V9.71205C11.7278 10.2457 13.1954 11.2241 15.5746 11.2241C17.9538 11.2241 19.4214 10.2457 19.4214 9.71205V5.28711H21.4004Z" fill="#86868B"/>
<path d="M20.8878 3.79886C19.9984 2.57588 17.9971 1.77539 15.5512 1.77539C13.4388 1.77539 11.6599 2.37576 10.637 3.3319C10.0367 3.8878 9.70312 4.55488 9.70312 5.28866C9.70312 6.40046 10.4591 7.33437 11.7044 7.97921C12.7272 8.49063 14.0391 8.80194 15.5512 8.80194C17.041 8.80194 18.3751 8.49063 19.398 7.97921C20.6432 7.3566 21.3992 6.40046 21.3992 5.28866C21.3992 4.73277 21.2213 4.24358 20.8878 3.79886ZM15.5734 6.80071C13.1942 6.80071 11.7266 5.82233 11.7266 5.28866C11.7266 4.755 13.1942 3.77662 15.5734 3.77662C17.9526 3.77662 19.4202 4.755 19.4202 5.28866C19.398 5.82233 17.9526 6.80071 15.5734 6.80071Z" fill="#86868B"/>
<path d="M19.4007 5.28939C19.4007 5.82305 17.9553 6.80143 15.5538 6.80143C13.1524 6.80143 11.707 5.82305 11.707 5.28939C11.707 4.75572 13.1746 3.77734 15.5538 3.77734C17.9331 3.77734 19.4007 4.75572 19.4007 5.28939Z" fill="#9E9E9E"/>
<path d="M25.203 18.5859C17.4649 18.5859 11.3945 21.9436 11.3945 26.2351C11.3945 30.5266 17.4649 33.8842 25.203 33.8842C32.9411 33.8842 39.0115 30.5266 39.0115 26.2351C39.0115 21.9436 32.9634 18.5859 25.203 18.5859ZM35.7873 28.7033C33.8306 30.5711 29.7836 31.883 25.203 31.883C20.6224 31.883 16.5755 30.5711 14.6187 28.681C13.8405 27.9473 13.3958 27.1023 13.3958 26.2351C13.3958 23.1888 18.7991 20.5872 25.203 20.5872C31.5847 20.5872 37.0103 23.1665 37.0103 26.2351C37.0103 27.1023 36.5656 27.9473 35.7873 28.7033Z" fill="#86868B"/>
<path d="M25.1984 42.0022C19.6171 42.0022 15.8148 39.9342 14.7252 36.3542L12.5684 29.2832L14.4806 28.7051L16.6375 35.7761C17.438 38.4666 20.5511 40.0009 25.1761 40.0009V42.0022H25.1984Z" fill="#86868B"/>
<path d="M25.2051 42.0009V39.9997C29.8301 39.9997 32.9432 38.4654 33.7437 35.7749L35.9005 28.6816L37.8128 29.2598L35.656 36.3308C34.5886 39.933 30.7863 42.0009 25.2051 42.0009Z" fill="#86868B"/>
<path d="M35.7877 28.7038C33.831 30.5716 29.784 31.8835 25.2034 31.8835C20.6228 31.8835 16.5759 30.5716 14.6191 28.6815C16.0422 26.7915 20.0002 25.1016 25.2034 25.1016C30.4289 25.1238 34.3869 26.7915 35.7877 28.7038Z" fill="#9E9E9E"/>
</svg>
