<svg width="209" height="48" viewBox="0 0 209 48" fill="none" xmlns="http://www.w3.org/2000/svg">
<g clip-path="url(#clip0_10_165)">
<path fill-rule="evenodd" clip-rule="evenodd" d="M34.6025 16.6997C33.9892 15.2637 33.308 13.6686 30.4658 14.6453V6.89655C30.4658 2.89523 23.7191 0 15.4995 0C7.27994 0 0.533203 2.89523 0.533203 6.89655V41.1034C0.533203 45.1048 7.27994 48 15.4995 48C23.7191 48 30.4658 45.1048 30.4658 41.1034V20.4599C33.0011 20.7935 33.5481 22.7863 33.0747 24.8474L35.6835 25.2612C36.2687 21.4816 34.9829 18.9679 30.4658 18.7711V17.1948C32.2015 16.3589 33.2627 17.7252 34.3507 19.1262C35.243 20.275 36.1533 21.4471 37.4684 21.4471C39.3907 21.4471 40.9011 20.4816 41.9995 18.5505L39.6653 15.3781C39.2076 17.4931 38.1092 18.5505 36.37 18.5505C35.393 18.5505 35.013 17.6607 34.6025 16.6997ZM19.4893 25.737C18.1588 25.4131 16.7909 25.0801 15.4444 25.0801C14.0764 25.0801 12.6942 25.42 11.3546 25.7494C7.85723 26.6094 4.65054 27.398 2.74476 21.879C0.420093 15.1465 5.72683 16.6302 10.5654 17.9829L10.5654 17.9829C12.4428 18.5078 14.2498 19.013 15.5131 19.0109C16.7272 19.0088 18.4704 18.5356 20.2931 18.0407C25.09 16.7385 30.438 15.2867 28.1444 21.879C26.2309 27.378 22.9893 26.5889 19.4893 25.737ZM8.76522 20.7469C8.17582 20.4767 7.59227 20.2286 7.04157 20.049C6.96471 21.0237 7.38522 21.9303 8.32335 22.8138C9.14224 23.585 9.91389 23.675 10.7414 23.0086C11.0141 22.7081 11.2503 22.369 11.4502 21.9914C11.1135 21.8503 10.763 21.6901 10.4051 21.5219C10.4144 21.5796 10.4192 21.6387 10.4192 21.699C10.4192 22.3085 9.92743 22.8025 9.32077 22.8025C8.71412 22.8025 8.22233 22.3085 8.22233 21.699C8.22233 21.2932 8.44039 20.9386 8.76522 20.7469ZM3.82854 21.0094C4.183 19.9412 4.96852 19.6619 5.96325 19.7909C5.79551 21.1648 6.33955 22.458 7.57208 23.6188C7.92728 23.9533 8.28655 24.1983 8.64728 24.3556C8.0709 24.5544 7.42579 24.6804 6.71196 24.7335C9.5027 25.2592 11.5041 24.4911 12.7162 22.4292C13.8802 22.7109 14.6757 22.4358 14.6757 20.8715C14.2704 22.4999 12.4248 21.3818 10.3639 20.1332C7.53704 18.4205 4.305 16.4624 3.82854 21.0094ZM20.5863 21.4993C20.225 21.6858 19.8709 21.8604 19.5292 22.0068C19.7298 22.3874 19.9674 22.7289 20.2417 23.0312C21.0693 23.6977 21.8409 23.6076 22.6598 22.8364C23.642 21.9114 24.0568 20.9611 23.9275 19.9338C23.3347 20.111 22.7166 20.3947 22.0979 20.7084C22.4879 20.8778 22.7608 21.2677 22.7608 21.7217C22.7608 22.3311 22.2691 22.8251 21.6624 22.8251C21.0557 22.8251 20.564 22.3311 20.564 21.7217C20.564 21.6455 20.5716 21.5712 20.5863 21.4993ZM16.5711 21.7217C16.9859 22.3328 17.5622 22.4964 18.2384 22.4028C19.4475 24.5015 21.4584 25.286 24.2712 24.7562C23.5574 24.7031 22.9123 24.5771 22.3359 24.3782C22.6966 24.2209 23.0559 23.976 23.4111 23.6414C24.6641 22.4614 25.2055 21.1445 25.011 19.745C25.8494 19.7257 26.5931 20.0648 27.1546 21.032C26.6206 16.0912 23.563 18.0921 20.71 19.959C19.1029 21.0107 17.5606 22.0199 16.5711 21.7217ZM16.0219 19.6527C16.0219 20.4218 16.4338 21.032 17.1203 21.17C16.4338 21.3079 15.61 20.7562 16.0219 19.6527ZM28.5436 6.89655C28.5436 9.59882 22.7487 12.1379 15.4995 12.1379C8.25037 12.1379 2.45548 9.59882 2.45548 6.89655C2.45548 4.19428 8.25037 1.65517 15.4995 1.65517C22.7487 1.65517 28.5436 4.19428 28.5436 6.89655Z" fill="#1D1D1F"/>
<ellipse cx="15.5002" cy="6.89534" rx="6.45336" ry="2.75862" fill="#FF6633"/>
<path fill-rule="evenodd" clip-rule="evenodd" d="M69.8658 32.0046H69.2357C69.2357 31.8636 69.0224 31.7191 68.5962 31.5716C67.5331 30.4167 67.0016 27.416 67.0016 22.569C66.9359 22.569 66.9034 22.4249 66.9034 22.136C66.9034 22.0622 66.9359 22.0251 67.0016 22.0251L66.9034 21.4817V20.5045C66.9034 20.4373 66.9359 20.4041 67.0016 20.4041C66.9359 20.2631 66.9034 20.1522 66.9034 20.0715L67.0016 17.4736H67.1099C67.1099 17.3999 67.0741 17.3628 67.0016 17.3628C67.0933 16.3829 67.1658 15.8054 67.2183 15.6304C67.2183 15.5567 67.182 15.52 67.1099 15.52C67.1099 15.4458 67.1462 15.3384 67.2183 15.1979C67.2904 13.3721 67.3262 11.9252 67.3262 10.8576C67.3262 9.6761 67.1854 8.15544 66.9034 6.29608C67.2115 5.71863 67.5297 5.42969 67.8578 5.42969C68.2647 5.42969 68.5109 5.61126 68.5962 5.97353C69.1145 6.09487 69.5735 6.45714 69.9741 7.06165C69.9741 7.25588 70.0462 7.47062 70.1904 7.70588L70.3973 7.60505H70.5057C70.6435 8.59191 70.7121 9.13226 70.7121 9.2261H70.9289V9.01485C71.2305 9.01485 71.4075 9.5181 71.46 10.5255C71.5585 10.5255 71.6997 11.0322 71.8832 12.0457C71.9557 12.0457 71.9915 12.0828 71.9915 12.1566C71.9915 12.2303 71.9557 12.2674 71.8832 12.2674L72.1984 14.5432C72.1263 14.9329 72.0901 15.2581 72.0901 15.52V16.7081C72.0901 16.8761 72.0572 17.0241 71.9915 17.1515C72.0572 17.2855 72.0901 17.3929 72.0901 17.4736C71.8341 20.1453 71.6242 21.4817 71.46 21.4817L71.5683 22.2469V24.2001C71.5683 24.3611 71.5325 24.5056 71.46 24.633C71.5325 24.7609 71.5683 24.905 71.5683 25.0665V25.1769C71.5683 25.3183 71.4962 25.3886 71.352 25.3886C71.352 25.3148 71.3158 25.2777 71.2437 25.2777V25.3886L71.46 25.7107V25.9324L71.0372 29.4063L70.5057 30.2722C70.2693 30.2722 70.056 30.3796 69.8658 30.5948C69.8658 30.6681 69.9016 30.7052 69.9741 30.7052L69.8658 31.7933V32.0046ZM77.1483 35.8419C80.5321 37.0762 82.8587 37.7274 84.1275 37.7942C84.1275 37.7942 87.6956 38.5964 89.352 37.6279C92.3383 35.882 91.5725 24.0472 91.5725 24.0472L91.8054 20.6641C91.8387 18.2814 91.6173 15.7294 91.1412 13.0088L91.0937 12.8826C90.8076 12.1236 89.9994 9.97973 90.0909 9.51534C90.2445 9.17751 90.3823 9.02038 90.5043 9.04569L90.8132 9.10898C90.8405 8.97106 90.8895 8.90908 90.9603 8.92348L91.4812 9.03129L91.5025 8.92261L92.2047 9.17969L92.1855 9.27877C91.9795 9.23599 91.8626 9.28706 91.834 9.43241L92.0678 9.36737L92.1642 9.38701L92.1429 9.49569L91.8779 9.77023C91.8575 9.87542 91.9394 10.0016 92.125 10.1495L92.337 10.1932C92.3745 10.002 92.5055 9.88197 92.7294 9.83221L92.7486 9.73357L93.1637 9.81868C93.1415 9.93042 93.5225 10.3756 94.3066 11.153C94.9252 11.9242 95.4989 13.0381 96.0292 14.4963C96.5403 16.6625 96.7472 17.9959 96.6486 18.4961L96.5424 18.4739C96.6674 19.6777 96.7502 21.0949 96.7911 22.7264C96.6934 22.8504 96.6363 22.9512 96.6209 23.0306C96.8333 23.0738 96.8888 23.7119 96.7868 24.9445L96.6401 25.1296L96.51 27.9889C96.2711 28.4878 96.1418 28.7898 96.1209 28.895L96.1009 29.5589L96.1973 29.5785L96.4311 29.5135L96.3884 29.7309L96.2417 29.9164C96.312 29.9308 96.3406 29.9744 96.3265 30.0469C96.2557 30.0325 96.2131 30.0608 96.199 30.1333L96.4069 30.1765C97.303 28.8757 97.9506 27.8271 98.3499 27.0306C98.3499 26.8761 98.5632 26.6247 98.9898 26.2755L100.574 22.7004C100.502 22.6606 100.466 22.4053 100.466 21.9352C100.965 20.8545 101.283 20.3142 101.421 20.3142C101.939 19.1593 102.789 16.6989 103.97 12.933L104.924 10.6573C104.852 10.5159 104.816 10.4085 104.816 10.3347C105.079 10.3347 105.466 10.0091 105.978 9.35791H106.411L106.509 9.79089H106.617C106.762 9.79089 106.834 9.71713 106.834 9.56917L107.887 9.68003H108.103C108.103 9.89521 108.172 10.0026 108.31 10.0026H108.419C108.419 9.7874 108.491 9.68003 108.635 9.68003H108.743C108.881 9.70011 108.95 9.77387 108.95 9.90176L109.166 9.79089H109.265V10.2239H109.481C109.619 10.2239 109.688 10.1501 109.688 10.0026V9.90176L109.59 9.68003L110.121 9.56917H110.328L110.22 9.79089V10.1134C110.364 10.1134 110.436 10.2575 110.436 10.5464H111.283C111.283 10.6202 111.246 10.6573 111.174 10.6573C111.207 11.0196 111.315 11.2007 111.499 11.2007V11.8449C111.538 12.6175 111.748 13.1609 112.129 13.4764C112.129 13.5101 112.237 13.8728 112.454 14.5641L112.661 14.4533H112.769L113.192 16.0843C113.402 16.0843 113.507 16.2991 113.507 16.729C113.435 16.729 113.399 16.7661 113.399 16.8399L113.615 16.9507V16.8399C113.543 16.8399 113.507 16.8032 113.507 16.729H113.832C113.838 17.1384 114.048 17.9341 114.462 19.1161C114.389 19.5119 114.353 19.8005 114.353 19.9816L114.57 20.0924C114.57 20.0187 114.606 19.9816 114.678 19.9816C114.678 20.1295 114.888 20.5992 115.308 21.3914C117.493 21.1766 118.802 21.0693 119.235 21.0693V21.291H119.018L119.127 21.8248L117.011 22.4791L117.109 22.7004C117.109 23.043 116.794 23.2577 116.164 23.345V23.4559H116.371V23.6776L116.164 23.9997V24.211C116.729 26.0437 117.188 27.6717 117.542 29.0951C117.542 29.2094 117.611 29.3535 117.749 29.528V29.6389C117.749 29.7127 117.713 29.7493 117.64 29.7493L118.596 32.5694C118.53 32.5694 118.497 32.606 118.497 32.6798C118.799 32.6798 119.114 33.7976 119.442 36.0332C119.206 36.0332 119.032 36.2143 118.92 36.5766H118.28C118.28 36.7983 118.103 36.9092 117.749 36.9092C117.5 36.6608 116.863 36.3688 115.84 36.0332C115.84 35.9193 115.311 35.7041 114.255 35.389C114.255 35.3082 114.042 35.1266 113.615 34.8451V34.6234L114.353 34.7343H114.678C114.816 34.7343 114.885 34.664 114.885 34.5226C114.885 34.2943 114.216 32.5218 112.877 29.2059C112.877 28.7625 112.522 27.6416 111.814 25.8425C110.456 26.279 108.973 26.6046 107.365 26.8193C107.365 26.7451 107.329 26.7085 107.257 26.7085C107.257 26.9232 107.044 27.0672 106.617 27.1414C105.417 27.4234 104.816 27.8228 104.816 28.3395C104.37 29.7899 103.947 30.7999 103.546 31.3708V31.703C103.757 31.703 103.862 31.7737 103.862 31.9147V32.0255L103.655 31.9147H103.438C103.229 32.4786 103.124 32.8409 103.124 33.0019L102.907 32.8915C102.907 33.0796 102.694 33.2974 102.267 33.5458C102.267 33.6802 101.88 34.3314 101.106 35.4994L100.889 35.6002H100.683L100.259 35.2781H100.151C100.013 35.2982 99.9445 35.3719 99.9445 35.4994C100.01 35.6334 100.043 35.7408 100.043 35.8215L99.8362 35.9324C99.744 35.8586 99.567 35.8215 99.3046 35.8215C99.3046 36.0362 99.1634 36.1436 98.8815 36.1436L97.1789 34.956C96.7428 34.956 96.3181 34.4326 95.9043 33.3861C95.8694 33.8592 95.7573 34.5772 95.568 35.5403L95.4012 36.3888C95.3044 36.8829 95.1884 37.1155 95.0531 37.088L94.9499 38.1757L94.8258 38.8077C94.4461 39.9896 93.9807 40.7055 93.4299 40.9547C93.2836 41.0712 93.0208 41.1598 92.6458 41.2222C92.6374 41.2248 92.6298 41.2277 92.622 41.2307L92.6084 41.2357L92.6006 41.2384C92.4434 41.3708 92.4301 41.4131 92.4149 41.4615C92.4017 41.5035 92.387 41.5501 92.2751 41.6644C92.1941 41.7006 92.0076 41.7194 91.721 41.722V41.7246C91.5469 41.8032 91.3259 41.8224 91.0576 41.7818C90.7364 42.1681 90.4885 42.4007 90.3145 42.4788L89.2659 42.467C88.3116 42.5814 87.1235 42.6028 85.702 42.5312C84.6087 41.9887 83.3135 41.5858 81.8161 41.3209C81.0713 40.7395 80.4084 40.4475 79.8265 40.4453C79.6865 40.1197 78.6904 39.4205 76.8386 38.3472C76.2208 37.9945 75.8488 37.8461 75.7226 37.9033C75.2563 37.4018 74.9329 37.1914 74.7525 37.2726L74.5823 36.8763C76.3492 37.5847 77.2989 37.909 77.4307 37.8492L77.3872 37.7484L76.5003 37.311L76.4606 37.2189L76.56 37.1744C76.5783 37.2176 77.141 37.4424 78.2485 37.8501C79.3551 38.2573 80.2893 38.462 81.0504 38.4642C81.6673 38.5829 82.0631 38.6025 82.2372 38.524L82.3362 38.4795C82.4445 38.431 82.4795 38.338 82.442 38.201C79.8388 37.5314 78.4558 37.0064 78.2916 36.6258L78.1461 36.8121C77.9481 36.9016 77.7498 36.7157 77.5514 36.2548L77.3624 36.3399L77.4456 36.5332L77.3462 36.5782C77.2302 36.308 77.0834 36.0584 76.9064 35.8301L77.1048 35.7411L77.1483 35.8419ZM96.272 30.3716L96.2766 30.365C96.2726 30.3644 96.2685 30.3637 96.2643 30.3629C96.266 30.3643 96.2676 30.366 96.2692 30.3679L96.272 30.3716ZM58.6073 33.671C58.6073 34.1743 59.2438 34.4628 60.5168 34.5365C61.7898 34.4763 62.4263 34.2245 62.4263 33.7819C63.4825 32.2573 64.0107 31.0627 64.0107 30.1967C64.5094 27.182 64.8276 24.9403 64.9654 23.4699V23.369L64.5426 23.5803V23.369L64.6506 22.8256C64.5785 22.8256 64.5426 22.7885 64.5426 22.7148H64.6506C64.6506 19.2841 64.7918 16.8237 65.0738 15.3332V15.2324H64.8673C64.8673 15.5217 64.7589 15.6658 64.5426 15.6658C64.5426 15.7395 64.5785 15.8469 64.6506 15.9879L64.5426 17.0756C64.5426 17.1493 64.5785 17.2567 64.6506 17.3977C64.6506 17.4915 64.5094 17.8171 64.2274 18.3745H64.119C64.119 17.6495 64.0141 17.2868 63.8042 17.2868C63.8042 17.1458 63.9091 17.0756 64.119 17.0756V16.31C64.119 15.8404 64.1553 15.1189 64.2274 14.1451H64.0107C64.0107 14.3062 63.9782 14.4502 63.9125 14.5781L64.0107 14.7994C63.8272 14.8264 63.686 15.0045 63.5875 15.3332L63.6958 15.7766C63.6958 15.8439 63.66 15.877 63.5875 15.877C63.5875 16.1455 63.6237 16.3266 63.6958 16.4209C63.6237 16.4209 63.5188 16.6758 63.381 17.1864C63.4531 17.3069 63.4894 17.4514 63.4894 17.619V17.7202L63.2726 18.052L63.381 18.2636H63.2726C63.2726 18.5054 63.3089 18.687 63.381 18.8075C63.3349 19.2239 63.23 19.549 63.0662 19.7843L63.1647 20.0056H63.0662C63.0662 20.583 62.9216 20.8715 62.6327 20.8715V20.9824L62.7411 21.6271C62.387 22.2783 62.2096 22.9662 62.2096 23.6911H62.0031C62.0031 23.6174 62.0389 23.5803 62.1114 23.5803C62.1114 23.3991 62.0752 23.1106 62.0031 22.7148L62.2096 22.3926L62.1114 22.1709C62.2492 22.1709 62.3179 21.9898 62.3179 21.6271L62.2096 21.4154C62.2821 21.4154 62.3904 21.2343 62.5346 20.8715C62.4625 20.7441 62.4263 20.5996 62.4263 20.4386C62.4263 20.3447 62.4954 19.9454 62.6327 19.2405V18.9183L62.5346 18.2636L62.6327 18.052L62.5346 17.5081L62.7411 16.9647C62.669 16.8373 62.6327 16.6928 62.6327 16.5317L62.8495 16.2096H62.6327L62.9578 13.823L62.8495 13.6013C63.3349 12.6952 63.9714 12.081 64.7589 11.7585V11.5372C64.7589 11.3692 64.4407 11.2251 63.8042 11.1038C63.1481 11.5267 62.6528 12.1077 62.3179 12.8462V13.0574H62.5346V13.1683H62.3179L62.4263 13.39C62.4263 13.6986 62.3542 13.9875 62.2096 14.256L62.3179 14.4677C62.1997 15.2463 62.059 15.716 61.8947 15.877L62.0031 16.0988C61.931 16.0988 61.8947 16.1359 61.8947 16.2096V16.31H62.0031V17.5081C62.0031 17.7233 62.0722 17.8307 62.2096 17.8307C62.0982 17.9922 61.9933 18.3173 61.8947 18.8075C61.8947 20.4722 61.7535 21.305 61.4715 21.305V21.5162H61.6784C61.6784 21.5904 61.6456 21.6271 61.5799 21.6271L61.6784 22.1709C61.6059 22.1709 61.501 22.2076 61.3632 22.2818C61.4353 22.7785 61.5078 23.1041 61.5799 23.2582C61.4421 23.3324 61.3337 23.369 61.2548 23.369V24.4467C61.1175 24.4467 61.0483 24.5911 61.0483 24.8796H60.94C60.8022 24.8796 60.6973 24.6278 60.6252 24.1246C60.763 23.661 60.8679 23.0102 60.94 22.1709C60.8679 22.0435 60.8316 21.899 60.8316 21.7379C60.8316 21.2277 60.9042 20.8283 61.0483 20.5398C60.9763 20.4054 60.94 20.298 60.94 20.2173C60.7105 20.2173 60.5334 21.0867 60.4089 22.8256C60.481 22.8256 60.5168 22.8588 60.5168 22.926C59.9524 26.9878 59.3163 29.4111 58.6073 30.1967C58.4764 29.5451 58.3352 29.2195 58.1842 29.2195C56.9931 24.7516 54.9522 20.8675 53.3577 17.8327C52.5805 16.3535 51.9093 15.076 51.4942 14.0312C51.068 13.507 50.8547 13.1814 50.8547 13.0539H50.6478V13.1648L50.7464 13.3865C50.5625 13.1648 50.2805 13.0539 49.9 13.0539V12.9536H50.1163V12.7318C49.5519 12.7318 49.2699 12.5874 49.2699 12.2988L48.9721 12.3093C48.5391 12.6716 48.2209 12.8527 48.0174 12.8527C48.0174 12.504 47.8045 12.1779 47.3779 11.8763C47.1676 11.9837 47.0627 12.0911 47.0627 12.1985C46.9842 12.1985 46.8758 12.1614 46.738 12.0876C46.6199 12.0876 46.5512 12.1614 46.5315 12.3093L46.6395 12.521C46.5674 12.521 46.5315 12.5577 46.5315 12.6314L46.3148 12.521H46.2167C46.0917 12.521 46.0196 12.5948 46 12.7419V12.8527L46.2167 13.6083C46.8988 13.6083 47.6761 15.8871 48.5489 20.446H48.4406C48.5131 21.1439 48.6176 21.6843 48.7558 22.067H48.6475C48.6475 22.3084 48.6833 22.4895 48.7558 22.6109L48.6475 23.1547C48.7196 23.7854 48.7558 24.1481 48.7558 24.242C48.6833 24.7522 48.6475 25.0411 48.6475 25.1079C48.7917 25.6854 48.8642 26.3536 48.8642 27.1118C48.8642 27.7564 48.7917 28.824 48.6475 30.3141C48.6475 31.7444 48.9329 32.7208 49.5037 33.2446V33.0229L49.3953 32.8016C49.4678 32.8016 49.5037 32.768 49.5037 32.7007V32.5899H49.2874V32.4795C49.3595 32.4795 49.4644 32.4424 49.6022 32.3686C49.9567 33.0464 50.1338 33.6274 50.1338 34.1105C50.8423 34.2314 51.1964 34.52 51.1964 34.9769H51.3048C51.3048 34.7552 51.3376 34.5034 51.4033 34.2214H51.62C51.62 34.9398 51.8329 35.2991 52.2595 35.2991L53.4207 34.8661C53.3486 34.3489 53.3128 34.0604 53.3128 34.0001C53.3128 33.7849 53.3849 33.6776 53.5291 33.6776L53.4207 33.1337V32.3686L53.3128 32.1573H53.4207C53.4207 32.036 53.3849 31.603 53.3128 30.858L53.1059 30.9588C53.2437 30.3813 53.3128 30.0221 53.3128 29.8812V29.2269L53.2142 29.0052C53.2799 29.0052 53.3128 28.9515 53.3128 28.8441C53.3128 28.1322 53.2799 27.5015 53.2142 26.9507C53.2578 26.6871 53.3956 26.7215 53.6272 27.0546C54.7428 29.7738 55.6254 31.3276 56.2751 31.7169C56.8391 32.0596 57.1215 32.3847 57.1215 32.6938C57.6855 33.1839 57.9679 33.4724 57.9679 33.5602C58.04 33.5602 58.0758 33.5231 58.0758 33.4493C58.2533 33.5968 58.4303 33.671 58.6073 33.671ZM86.3635 34.7862C86.3362 34.6435 86.1608 34.5798 85.8379 34.5955C85.8673 34.75 85.5747 34.9071 84.9599 35.0682C84.6707 34.7247 84.3337 34.4929 83.948 34.3729C83.931 34.2838 83.8171 34.2079 83.6059 34.145L83.5189 34.1629L83.5564 34.3589C83.021 33.96 82.745 33.7164 82.728 33.6274C81.4644 31.7938 80.7485 30.4403 80.5809 29.566C80.3377 28.6145 80.0724 27.7355 79.7848 26.9284L79.8446 26.722L79.3207 25.0302L79.4167 25.011L79.2832 24.8343L78.9508 23.1037L78.6804 22.167L78.2969 22.2442C78.3267 22.3988 78.2627 22.7418 78.1053 23.2739L78.2969 23.2355C78.2491 23.9923 78.2422 24.4598 78.2768 24.6383C78.3348 24.6265 78.3702 24.6531 78.3826 24.719C78.1791 24.7596 78.1407 25.2336 78.2666 26.1406L78.4547 26.6033C78.4223 26.9677 78.3463 27.2484 78.2273 27.4457C78.2397 27.5107 78.2781 27.5373 78.3421 27.5242C78.3899 28.4657 78.3758 29.0671 78.2994 29.3299C78.3805 29.4373 78.4274 29.5263 78.4415 29.5974C78.2542 30.006 78.1441 30.9575 78.1113 32.452C78.0486 33.132 77.985 33.4781 77.921 33.4908L77.6424 33.5466C77.5051 34.3091 77.2909 34.7199 77.0004 34.7779C76.8584 34.5409 76.741 34.4318 76.648 34.4506L76.4561 34.489L76.0026 34.6732C75.9476 34.3877 75.6293 34.2541 75.0474 34.272L75.0508 33.7714C74.989 33.4502 74.8337 33.3149 74.5837 33.3651L74.472 32.7854C74.4118 32.4699 74.2245 32.3442 73.911 32.4074C73.6324 30.9566 73.6738 28.4535 74.0351 24.898C74.0227 24.8321 73.9843 24.8063 73.9204 24.819L73.9186 23.819L74.1294 23.8788L74.018 23.2988C74.2326 23.2555 74.3026 22.9422 74.2267 22.3582L74.0982 21.6895C74.2433 21.6602 74.2936 21.4184 74.2488 20.9645L74.0863 20.5896C74.1076 20.3879 74.1507 20.2806 74.2143 20.267C74.2019 20.202 74.1635 20.1754 74.0995 20.1885C74.062 19.6464 74.0722 19.1811 74.1307 18.7926C74.0428 18.6809 73.992 18.5892 73.9779 18.5181C74.0889 18.4339 74.1759 18.3854 74.2399 18.3728C74.1452 18.2252 74.0223 17.9162 73.8721 17.4461C73.9532 17.4295 74.0411 17.2113 74.1354 16.791C74.0475 16.6793 73.9976 16.5907 73.9848 16.5247L74.0808 16.5055L73.9472 16.3288C74.0121 14.6239 73.9434 12.7414 73.7412 10.6826C73.9438 10.5124 74.1819 10.3998 74.4549 10.3448L74.7339 10.2885C74.7979 10.2758 74.8363 10.302 74.8486 10.3675L75.0218 10.2309C75.7189 10.4984 76.1161 10.8847 76.2129 11.3901L76.3857 11.2535L76.6647 11.1972L76.6839 11.2958L76.6323 11.5001L77.5652 11.3129L78.7136 11.6839L78.8369 11.8541L78.5579 11.91L78.5767 12.0077C78.8335 12.6541 79.2187 13.3084 79.7324 13.9714C80.5416 15.1359 81.0877 16.4558 81.3705 17.9306L81.629 19.2776C81.821 19.2387 82.2007 20.1937 82.7676 22.1421L82.8602 22.624C82.873 22.689 82.847 22.7283 82.783 22.7409L82.9152 22.9094C82.972 23.2067 82.94 23.7134 82.8175 24.4292C83.1473 24.7954 83.3644 25.2489 83.4681 25.7901L83.5061 25.9861L83.6887 25.9494C83.8166 25.9237 83.8939 25.4759 83.9199 24.6064L84.0159 24.5872L83.8823 24.41L83.8273 24.1246C84.0824 23.5977 84.1451 22.0539 84.0154 19.4923C84.1242 19.1802 84.2002 18.5692 84.2428 17.6591C84.5329 16.3406 84.8238 15.4825 85.1156 15.0844L85.2116 15.0652L85.2492 15.2616L85.1894 15.4676L85.3998 15.5274L85.4957 15.5082L85.477 15.41L85.285 15.4484L85.3452 15.2424L85.3264 15.1438C85.3136 15.0787 85.2756 15.0521 85.2116 15.0652C85.2539 14.9391 85.2611 14.8051 85.2338 14.6628L85.4168 14.6257L85.4219 15.1246C85.6254 15.0835 85.7952 14.6174 85.9322 13.7252L85.913 13.627L86.1152 13.6886L86.0964 13.5904C86.0324 13.6035 85.994 13.5768 85.9812 13.5118C86.0802 13.4917 86.1962 13.404 86.3289 13.2473C86.3404 13.3067 86.3754 13.3307 86.4334 13.3189C86.7278 12.463 87.0609 11.9977 87.4329 11.923L87.5289 11.9038L87.6023 12.2875L86.9419 13.4206L86.7397 13.359L86.4522 13.4171L86.471 13.5153L86.8459 13.4398L86.8835 13.6362C86.5175 14.0862 86.3421 14.3533 86.3583 14.4362C86.1484 15.3864 85.9049 17.4981 85.628 20.7707L85.6468 20.8689L85.7338 20.8515C85.9812 20.1907 86.1088 19.3312 86.1173 18.2732L86.4253 16.8128L86.5296 16.7917C86.5415 16.5244 86.5968 16.3809 86.6963 16.3611L86.7918 16.3414C86.8226 16.502 86.9177 16.65 87.0764 16.7849L87.0996 16.9063C87.1428 16.8808 87.1804 16.8647 87.2124 16.8582L87.2316 16.9564C87.1365 17.4693 87.0644 18.1139 87.014 18.8895L87.11 18.8703C87.2555 18.8415 87.3459 18.292 87.3822 17.2227C87.7597 17.1467 87.9918 16.5007 88.0784 15.2856L88.2704 15.2468C88.2964 15.3838 88.2516 15.8251 88.1351 16.571C88.2921 16.5391 88.4094 16.6483 88.4875 16.8984L88.4845 17.3994C88.5848 17.5766 88.6671 17.6591 88.7311 17.646L88.784 19.4325C88.822 19.6285 88.9337 19.7079 89.1197 19.6708L89.1368 19.7599C89.1824 22.0417 89.1048 24.6845 88.903 27.6896C88.6948 28.8061 88.2891 30.4189 87.6863 32.5283C87.2222 33.8199 86.9581 34.4719 86.8941 34.485L86.3635 34.7862ZM86.7009 17.2576L86.6485 16.9847C86.6817 16.9847 86.7153 16.9872 86.7494 16.9923L86.7969 17.2384L86.7009 17.2576ZM86.6777 16.104L86.7737 16.0848C86.737 15.8949 86.7801 15.7875 86.9021 15.7627L86.8453 15.4685L86.7583 15.4859C86.7963 15.6819 86.7191 15.7998 86.5271 15.8382C86.615 15.9504 86.6653 16.039 86.6777 16.104ZM60.8193 20.034H60.9276C60.9276 19.7389 60.8918 19.45 60.8193 19.168L60.9276 18.6242V18.5238H60.7211C60.7211 18.7184 60.6486 18.9332 60.5044 19.168L60.6128 19.3897C60.5407 19.3897 60.5044 19.4264 60.5044 19.5006V19.7118C60.6162 19.9266 60.7211 20.034 60.8193 20.034ZM104.018 17.4082C104.169 17.3746 104.31 17.1934 104.441 16.8643C104.375 16.7369 104.343 16.5924 104.343 16.4313C104.507 16.4313 104.825 15.8168 105.297 14.5886L105.189 14.3668V14.256C105.576 13.8064 105.786 13.1923 105.819 12.4132H105.396V12.6349H105.612C104.549 14.9377 104.018 16.5287 104.018 17.4082ZM84.906 28.4185C84.9069 28.7703 84.8429 29.1134 84.7145 29.4482C84.604 29.4704 84.528 29.4207 84.4862 29.2993L84.3941 28.8179L84.4901 28.7987L84.9073 26.9175C84.8949 26.8525 84.8446 26.7639 84.7567 26.6517C84.8557 26.6316 84.9679 26.5413 85.0937 26.3802L85.1129 26.478L84.9845 26.8006L85.022 26.9965L85.2051 26.9599L85.1505 26.674L85.2464 26.6552L85.3556 27.2257C85.1778 27.9965 85.0276 28.3941 84.906 28.4185ZM107.004 23.3904C107.365 23.3904 108.533 23.1019 110.508 22.5245V22.414C110.508 22.2591 110.012 20.7053 109.021 17.7512V17.6508C108.687 18.1004 108.333 18.8956 107.959 20.0375C107.801 21.0374 107.519 22.0107 107.112 22.9574H107.004V23.3904ZM116.491 28.7668V28.8777C116.281 28.8777 115.963 28.0449 115.536 26.3802C115.818 26.3802 115.959 26.6351 115.959 27.1458H116.176L116.382 27.0349C116.382 27.1087 116.419 27.1458 116.491 27.1458L116.382 27.6892C116.455 28.3203 116.491 28.6796 116.491 28.7668ZM85.269 24.2874C85.2225 24.0434 85.3117 23.661 85.5378 23.1403C85.5809 23.0203 85.5822 22.8531 85.5412 22.6392L85.5054 22.452L85.4094 22.4712C85.3279 22.4878 85.2277 22.971 85.1082 23.9212L84.8207 23.9792L84.8941 24.3624L84.9901 24.3432L85.0384 24.308C85.0358 24.5168 84.9634 24.9672 84.8207 25.6587L84.836 26.2576L84.8531 26.3471L84.9491 26.3274C85.0903 25.0211 85.1569 24.3437 85.1475 24.2961L85.1361 24.2368L85.165 24.2158C85.176 24.2747 85.211 24.2987 85.269 24.2874Z" fill="#1D1D1F"/>
<path fill-rule="evenodd" clip-rule="evenodd" d="M138.318 35.0771L136.183 34.8596L135.976 34.9683C135.106 34.7513 134.467 34.432 134.059 34.0108C133.136 33.2531 132.675 32.6872 132.675 32.3118C132.675 32.2463 132.603 31.96 132.458 31.4527V31.3543L132.566 31.1368C132.474 31.1368 132.264 30.8539 131.934 30.2875V29.9712C131.934 29.8989 132.181 29.6848 132.675 29.3291L132.566 28.7962C133.812 27.8746 134.665 27.4136 135.126 27.4136V27.5223C135.126 27.8053 134.876 28.3716 134.375 29.2208V29.3291C134.526 29.3291 134.918 29.4349 135.551 29.6455L137.359 29.4379V29.5466C137.834 29.4742 138.295 29.3655 138.743 29.2208L139.484 29.3291C140.511 29.1652 141.79 28.5261 143.318 27.4136C143.753 27.0515 144.178 26.4851 144.593 25.7151C144.949 25.3397 145.126 24.984 145.126 24.6484C141.18 23.7991 139.052 23.2657 138.743 23.0487C138.743 23.193 138.67 23.2657 138.525 23.2657C136.029 22.6665 134.576 22.1006 134.167 21.5672C133.864 21.5672 133.331 21.2119 132.566 20.5005C132.382 20.4808 131.993 20.0198 131.4 19.1179C131.229 19.1179 131.051 18.8713 130.867 18.3769C130.583 18.3769 130.442 18.0216 130.442 17.3106C130.442 16.1258 130.794 15.095 131.499 14.2197C131.927 13.4954 132.425 12.8931 132.991 12.4124C133.327 12.0768 133.541 11.7241 133.634 11.3556C134.72 10.5722 135.36 10.1805 135.551 10.1805C137.152 10.3449 138.321 10.6279 139.059 11.0294C140.693 11.8988 141.51 12.7151 141.51 13.4787V14.3284H141.292V14.4367L141.401 14.6541L140.867 14.753C140.637 14.753 140.106 14.4701 139.276 13.9033C138.051 14.4037 137.307 14.7594 137.043 14.9705C136.984 15.3061 136.522 15.7307 135.659 16.2439C135.659 16.3625 135.304 16.7182 134.592 17.3106C134.164 17.9557 133.95 18.3444 133.95 18.4762C135.373 19.1145 137.715 19.7531 140.976 20.3922C143.928 21.1032 145.736 21.8142 146.401 22.5252C148.536 23.5851 149.603 24.3984 149.603 24.9643H149.386C149.386 24.7798 148.997 24.4279 148.22 23.9074H148.002V24.0063C148.325 24.8757 148.822 25.445 149.494 25.7151C149.494 25.8071 149.672 26.1264 150.028 26.6726C149.883 26.6927 149.81 26.7617 149.81 26.8802L149.919 27.8382C149.919 28.3784 149.494 28.8026 148.645 29.1125C148.645 29.3428 148.325 29.6981 147.686 30.1788C147.686 30.5345 147.116 31.0315 145.977 31.6702C145.977 31.808 145.515 32.2331 144.593 32.9441C144.382 33.0297 144.276 33.1384 144.276 33.2698H144.168L143.96 33.1615C143.96 33.6747 143.285 34.1721 141.935 34.6524C141.935 34.4354 141.862 34.3267 141.717 34.3267C141.487 34.649 141.098 34.863 140.551 34.9683L139.909 34.8596H139.701C139.543 34.8596 139.402 34.896 139.276 34.9683L139.059 34.8596C138.934 34.9324 138.792 34.9683 138.634 34.9683L138.426 34.8596L138.318 35.0771ZM158.863 33.902H158.645C157.914 33.902 157.417 33.7967 157.153 33.5861L156.728 33.6949C156.616 33.6949 156.405 33.5532 156.096 33.2698L155.878 33.3687C155.384 33.2565 154.923 32.8319 154.495 32.0944L154.278 32.2031H154.07C152.581 30.9789 151.836 30.1626 151.836 29.7542C150.631 27.2655 150.028 24.4279 150.028 21.2415C149.975 21.2415 149.867 20.2141 149.702 18.1603H149.81C149.666 17.7978 149.593 17.5512 149.593 17.4194C149.646 16.9913 149.718 16.7773 149.81 16.7773L149.168 13.6962C149.3 13.6962 149.409 13.3768 149.494 12.7382C149.778 12.7382 149.919 12.6658 149.919 12.5211V12.4124H150.028L150.344 12.6299C150.496 12.6299 150.707 12.4158 150.977 11.9878C151.056 11.9878 151.164 11.9514 151.303 11.8791V12.0965L151.836 11.9878C151.836 12.2052 151.869 12.3135 151.935 12.3135C152.034 12.2412 152.212 12.2052 152.469 12.2052C152.469 12.3692 152.683 12.4745 153.111 12.5211V12.6299L153.003 12.837C153.148 12.837 153.22 12.9094 153.22 13.0541H153.319C153.391 13.0541 153.678 12.9817 154.179 12.837H154.495V13.5874L154.278 13.9033L154.603 14.1208L154.278 15.711C154.304 15.8557 154.376 15.928 154.495 15.928C154.422 16.7576 154.386 17.3603 154.386 17.7353V17.844L154.495 18.9004H154.386L154.495 19.1179V19.2266C154.495 20.3657 154.6 22.4199 154.811 25.3889H154.702C154.775 25.5537 154.92 26.123 155.137 27.0977L155.028 27.631C155.167 27.8613 155.236 28.0719 155.236 28.2629L155.137 28.4803C155.486 28.4803 155.661 28.8356 155.661 29.5466C155.779 29.5466 155.924 29.7572 156.096 30.1788C156.445 30.1788 157.295 29.3291 158.645 27.631C159.429 26.3075 160.21 24.0358 160.987 20.8168V19.3251L160.879 18.5845H160.987L160.879 18.3769C160.879 18.213 160.915 18.0679 160.987 17.9429C160.777 15.1644 160.671 13.4988 160.671 12.9458C160.928 12.6033 161.248 12.32 161.63 12.0965V11.7802H161.837V11.9878H162.153C162.516 11.4938 162.835 11.2468 163.112 11.2468L163.221 11.4544L163.438 11.3556H163.646V11.6715H163.754L164.288 11.5632L164.93 11.9878V12.3135H165.355V12.0965C165.494 12.1689 165.599 12.2052 165.672 12.2052C165.81 12.1325 165.915 12.0965 165.988 12.0965C166.488 12.5571 166.738 13.1234 166.738 13.7946C166.666 13.7946 166.63 13.831 166.63 13.9033C166.768 13.9299 166.837 14.0022 166.837 14.1208C166.627 14.2856 166.521 14.5321 166.521 14.8617H166.413L166.205 14.2197C166.06 14.2458 165.988 14.3181 165.988 14.4367V15.928C165.988 16.5996 165.951 17.4159 165.879 18.3769L165.988 18.9004C165.546 21.771 165.122 23.6874 164.713 24.6484C164.64 24.6484 164.604 24.6847 164.604 24.7571V25.7151L164.713 26.7719C164.429 26.7719 164.288 27.0583 164.288 27.631H164.179C164.179 27.8613 164.321 28.6413 164.604 29.9712H164.495L164.604 30.1788V30.7122C164.604 30.8701 164.568 31.0118 164.495 31.1368C164.568 31.2751 164.604 31.3804 164.604 31.4527C164.446 31.4527 164.268 31.1004 164.07 30.3963H163.971C163.971 30.4618 163.935 30.4947 163.863 30.4947C164.001 31.2455 164.179 31.9925 164.397 32.7364C164.324 32.8751 164.288 32.9804 164.288 33.0528C164.176 33.0528 163.929 32.3084 163.547 30.8209H163.438L163.329 31.0281V31.1368H163.547V31.7785H163.754C163.754 31.8512 163.718 31.8872 163.646 31.8872L163.754 32.0944V32.4107L163.547 32.3118C163.547 32.3777 163.511 32.4107 163.438 32.4107C163.221 31.9891 162.97 31.2092 162.687 30.0701H162.48C162.381 30.0701 162.239 30.3894 162.055 31.0281C161.916 31.0281 161.56 31.4198 160.987 32.2031L161.096 32.4107C160.905 32.6474 160.408 32.8614 159.604 33.0528C159.11 33.4611 158.863 33.7441 158.863 33.902V33.902ZM165.138 35.6104H164.822C164.749 35.0903 164.676 34.771 164.604 34.6524C164.676 34.5343 164.713 34.3566 164.713 34.1195H164.93V34.5437L164.822 34.7513C164.96 34.8236 165.065 34.8596 165.138 34.8596V34.9683L164.93 35.2847C165.068 35.3108 165.138 35.3835 165.138 35.5017V35.6104ZM190.08 37.8217L189.655 37.6146C189.517 37.6805 189.408 37.7134 189.329 37.7134L188.904 37.6146C188.766 37.6805 188.661 37.7134 188.588 37.7134C188.588 37.5294 188.338 37.3877 187.837 37.2888C187.679 36.8736 187.395 36.5217 186.987 36.2319C186.565 35.4683 186.246 34.405 186.029 33.0421L186.137 32.8246C186.065 32.6864 186.029 32.5811 186.029 32.5087H186.137C186.012 32.2784 185.87 31.2845 185.712 29.526H185.821C185.689 29.0984 185.334 25.7669 184.754 19.5323C184.681 19.5323 184.576 18.9629 184.437 17.8239C184.437 17.7515 184.474 17.6458 184.546 17.5076C184.546 16.7704 184.118 15.9537 183.262 15.0587C183.262 15.012 183.084 14.515 182.728 13.5669C182.807 13.251 183.057 13.0044 183.479 12.8268H183.588V13.034C184.088 12.8957 184.371 12.8268 184.437 12.8268H184.546V13.4684H184.754L184.645 13.6756V13.7843C184.79 13.7843 184.862 13.8207 184.862 13.8931L185.712 13.3597H185.821V13.4684C185.749 13.5998 185.712 13.7051 185.712 13.7843C185.785 13.7843 185.821 13.8207 185.821 13.8931C185.959 13.8207 186.065 13.7843 186.137 13.7843C186.756 13.8241 187.395 14.39 188.054 15.4833C188.054 15.9507 188.301 16.6617 188.796 17.6163C189.296 22.1656 189.547 24.6479 189.547 25.0627H189.655C191.269 24.8453 192.475 24.7365 193.272 24.7365H193.697C194.336 24.7365 194.656 24.3483 194.656 23.5714H194.764L194.656 23.3539V23.2555C195.011 23.2555 195.367 21.125 195.723 16.8655C195.578 16.8655 195.505 16.7966 195.505 16.6583V16.0162C195.888 16.0162 196.171 15.9109 196.355 15.7003H196.573L196.672 16.2337C196.605 16.2337 196.573 16.2666 196.573 16.3321L196.78 16.4408C196.78 16.3685 196.817 16.3321 196.889 16.3321L196.78 16.1249V16.0162C197.248 16.0162 197.531 15.8026 197.63 15.3746H197.848C197.848 15.4533 197.884 15.562 197.956 15.7003L198.164 15.592H198.272C198.272 15.8287 198.308 16.0064 198.381 16.1249L198.589 16.0162C198.734 16.0363 198.806 16.1087 198.806 16.2337V16.3321H198.589V16.4408H198.915L199.013 16.2337C198.948 16.095 198.915 15.9871 198.915 15.9079H199.122C199.551 16.2829 199.765 16.6022 199.765 16.8655H200.081L200.298 16.7567L200.19 16.5496C200.209 16.4049 200.279 16.3321 200.397 16.3321C200.924 16.3321 201.211 16.4408 201.257 16.6583V16.8655C201.257 17.0106 201.148 17.0829 200.931 17.0829C201.214 17.8205 201.356 18.281 201.356 18.4655C201.006 19.8747 200.832 21.6456 200.832 23.779L201.039 23.8877C201.039 23.8149 201.075 23.779 201.148 23.779C201.148 23.9237 201.184 23.9956 201.257 23.9956L201.682 23.779V23.8877C201.682 24.0983 201.398 24.2396 200.832 24.3119V24.954H201.573L202.957 24.6377C202.957 24.704 202.993 24.7365 203.065 24.7365C203.065 24.5987 203.349 24.4934 203.915 24.4206V24.5294C203.915 24.6214 203.454 24.8684 202.532 25.2699C202.532 25.5528 201.893 25.8722 200.615 26.2279V26.4449L201.148 26.3366C201.221 26.3366 201.257 26.3726 201.257 26.4449C201.395 26.3726 201.501 26.3366 201.573 26.3366H201.79V26.4449C200.934 26.5502 200.506 26.6919 200.506 26.8695C200.506 27.0806 200.469 27.1859 200.397 27.1859L200.506 27.4029C200.367 28.0022 200.298 28.3545 200.298 28.4598L200.397 29.1018C200.397 29.7538 200.186 31.3829 199.765 33.9902H199.547V33.783H199.449V35.1652H199.122L198.697 34.8493C198.697 34.9679 198.52 35.2872 198.164 35.8073C198.164 36.5645 197.953 36.9892 197.531 37.0816C197.531 37.2922 197.176 37.3975 196.464 37.3975H196.355C196.355 37.1869 196.25 37.0816 196.039 37.0816H195.93V36.2319C195.93 36.0676 195.894 35.9259 195.822 35.8073C195.822 35.735 195.858 35.6986 195.93 35.6986C195.93 35.5539 195.894 35.4811 195.822 35.4811C195.986 32.7882 196.128 31.4424 196.247 31.4424L196.148 31.225C196.286 30.7374 196.355 30.3132 196.355 29.9511V29.1018L196.464 28.5685C196.293 28.4302 196.151 28.3613 196.039 28.3613C194.991 28.5719 194.28 28.7461 193.904 28.8844V29.526C193.72 29.526 193.473 29.9177 193.163 30.7015L192.205 32.8246C192.066 32.897 191.961 32.9334 191.889 32.9334V33.783C191.889 33.9538 191.711 34.2732 191.355 34.7406C191.355 35.1618 191.283 35.3728 191.138 35.3728L191.246 35.5899C190.679 36.1956 190.396 36.5513 190.396 36.657V37.1899L190.505 37.3975C190.268 37.3975 190.126 37.5388 190.08 37.8217V37.8217ZM195.189 23.7815C195.525 22.7088 195.772 22.1391 195.93 22.0732C195.858 21.7902 195.753 21.5433 195.614 21.3326L195.822 21.0167H195.723C195.604 21.0167 195.459 21.2637 195.288 21.7573L195.397 22.2906C195.364 22.5736 195.258 22.7153 195.081 22.7153V22.8236L195.189 23.0316H194.972V23.5645C194.998 23.7096 195.071 23.7815 195.189 23.7815V23.7815ZM197.848 32.5023C198.019 32.5023 198.124 32.1462 198.164 31.4352C198.098 31.2973 198.065 31.192 198.065 31.1193H198.272V30.6951C198.272 30.5499 198.203 30.4776 198.065 30.4776L198.164 29.9443V28.8874C198.164 28.815 198.2 28.7787 198.272 28.7787L198.164 28.5616C198.164 28.4893 198.2 28.3836 198.272 28.2457L198.065 27.2877C198.131 27.2877 198.164 27.2514 198.164 27.179H197.956V27.9298C197.956 28.0878 197.92 28.229 197.848 28.354C197.848 28.4268 197.884 28.4628 197.956 28.4628L197.848 28.9863V29.2033L197.956 29.9443H197.848L197.956 30.1617V30.3689C197.956 30.5136 197.884 30.5863 197.739 30.5863C197.884 30.8166 197.956 31.0307 197.956 31.228V31.7515L197.848 32.5023ZM197.106 33.4603C197.245 32.9269 197.314 32.6076 197.314 32.5023C197.314 32.43 197.277 32.3936 197.205 32.3936L197.314 31.8602V30.6951L197.205 29.4109H197.314L197.205 29.2033V28.4628C197.205 28.3904 197.241 28.354 197.314 28.354C197.241 28.262 197.205 28.0116 197.205 27.6036C197.067 27.6302 196.998 27.7025 196.998 27.8211V28.5616C196.998 28.97 196.961 29.2204 196.889 29.312C196.961 29.6943 196.998 30.0132 196.998 30.2704V33.4603H197.106ZM192.314 30.7935C192.314 30.5632 192.561 30.0692 193.055 29.312L193.588 28.2457V28.0283H193.48C193.071 28.4829 192.752 29.0522 192.521 29.7371C192.475 29.7371 192.333 29.9147 192.096 30.2704V30.7935H192.314ZM189.863 32.5023C190.285 32.0409 191.065 30.8693 192.205 28.9863C192.205 28.9203 192.241 28.8874 192.314 28.8874V29.2033H192.521C192.521 28.9071 192.594 28.5518 192.738 28.137H192.63V28.2457C192.557 28.2457 192.521 28.2093 192.521 28.137C191.355 28.5646 190.683 28.7787 190.505 28.7787C190.024 28.5681 189.741 28.4628 189.655 28.4628V28.7787C189.655 28.9366 189.688 29.0783 189.754 29.2033C189.754 29.2756 189.721 29.312 189.655 29.312C189.721 29.6348 189.79 30.6981 189.863 32.5023V32.5023ZM206.666 37.0953H206.033C206.033 36.9571 205.819 36.8154 205.391 36.6707C204.323 35.5381 203.79 32.5952 203.79 27.8416C203.724 27.8416 203.691 27.7004 203.691 27.417C203.691 27.3447 203.724 27.3083 203.79 27.3083L203.691 26.7754V25.8169C203.691 25.7515 203.724 25.7185 203.79 25.7185C203.724 25.5802 203.691 25.4715 203.691 25.3923L203.79 22.8445H203.899C203.899 22.7722 203.863 22.7358 203.79 22.7358C203.882 21.7748 203.955 21.2085 204.007 21.0373C204.007 20.9645 203.971 20.9286 203.899 20.9286C203.899 20.8562 203.935 20.7505 204.007 20.6127C204.08 18.8221 204.116 17.4031 204.116 16.3561C204.116 15.1973 203.974 13.706 203.691 11.8825C204.001 11.3162 204.32 11.0328 204.65 11.0328C205.058 11.0328 205.305 11.2109 205.391 11.5662C205.911 11.6852 206.373 12.0404 206.774 12.6333C206.774 12.8238 206.847 13.0344 206.992 13.2651L207.199 13.1662H207.308C207.446 14.1341 207.516 14.6644 207.516 14.7564H207.733V14.5488C208.036 14.5488 208.214 15.0424 208.267 16.0303C208.366 16.0303 208.507 16.5273 208.692 17.5212C208.764 17.5212 208.8 17.5576 208.8 17.63C208.8 17.7023 208.764 17.7387 208.692 17.7387L209.008 19.9706C208.935 20.3528 208.899 20.6717 208.899 20.9286V22.0937C208.899 22.2585 208.866 22.4036 208.8 22.5286C208.866 22.66 208.899 22.7653 208.899 22.8445C208.642 25.4647 208.432 26.7754 208.267 26.7754L208.375 27.5257V29.4413C208.375 29.5992 208.339 29.7409 208.267 29.8659C208.339 29.9913 208.375 30.1326 208.375 30.291V30.3993C208.375 30.538 208.303 30.6069 208.158 30.6069C208.158 30.5345 208.122 30.4982 208.049 30.4982V30.6069L208.267 30.9228V31.1402L207.842 34.5475L207.308 35.3964C207.071 35.3964 206.857 35.5017 206.666 35.7127C206.666 35.7851 206.702 35.821 206.774 35.821L206.666 36.8882V37.0953ZM172.323 15.2641C173.309 14.8977 174.235 14.5912 175.101 14.3451H175.195V14.5249C174.886 14.5424 174.731 14.6053 174.731 14.7145C174.175 14.7487 173.897 14.872 173.897 15.0839H173.622C173.415 15.0839 173.201 15.1755 172.977 15.3587H172.323V15.2641ZM182.904 29.3159H182.999C182.999 29.184 182.907 28.9978 182.724 28.7573V28.4824L182.81 28.2932L182.259 27.3656C181.239 26.334 180.064 25.409 178.734 24.5901C177.445 23.8282 176.797 23.3954 176.791 23.2927C176.281 23.0748 174.923 22.2444 172.716 20.801C171.507 20.1191 170.675 19.409 170.222 18.6697C170.251 18.4236 170.343 18.3003 170.497 18.3003C170.497 17.8881 172.386 17.2203 173.992 16.5616C174.92 16.3094 175.384 16.0945 175.384 15.9169C176.984 15.3844 177.878 15.0437 178.067 14.8947C178.996 14.6884 179.46 14.5339 179.46 14.4307C179.597 14.4307 179.721 14.6486 179.829 15.0839L179.735 15.2641C179.735 15.3904 179.826 15.4529 180.01 15.4529V15.5475C179.826 15.5475 179.735 15.6395 179.735 15.8227C179.798 16.1318 179.984 16.5329 180.294 17.0256H180.569L180.474 16.8368H180.75C181.019 16.0346 181.237 15.6335 181.403 15.6335V15.4529C181.403 15.1494 181.494 14.8403 181.678 14.5249C181.615 14.4166 181.583 14.2929 181.583 14.1559C181.555 13.944 181.062 13.5429 180.104 12.9531L178.531 12.489H178.437C178.013 12.489 177.551 12.5832 177.053 12.7724C175.315 13.1388 174.204 13.5082 173.716 13.8811L173.527 13.7865H173.347C173.031 14.0326 172.63 14.1871 172.143 14.2505L168.902 15.7281C167.566 16.4156 166.824 17.1262 166.675 17.859C166.675 17.9506 166.829 18.3517 167.139 19.0618L167.044 19.251C167.044 19.3028 167.168 19.5776 167.414 20.0759C167.414 20.242 167.569 20.4282 167.879 20.6345C167.879 20.8121 168.156 21.1815 168.712 21.7427C169.406 22.1609 169.93 22.562 170.286 22.9456C170.905 23.0543 171.215 23.2092 171.215 23.4096C172.43 24.0743 173.109 24.5067 173.252 24.7074C174.817 25.5721 176.422 26.5887 178.067 27.7577C179.116 28.2958 179.641 28.6682 179.641 28.8745C179.004 29.3839 177.121 29.7854 173.992 30.0774C173.992 30.0145 173.96 29.9828 173.897 29.9828C173.788 30.0457 173.665 30.0774 173.527 30.0774H169.916C168.93 30.0774 168.437 30.4468 168.437 31.1856V31.4608C168.672 31.4608 168.827 31.6787 168.902 32.1136L169.452 32.4835C169.716 32.6662 169.902 32.7583 170.011 32.7583C170.36 33.0044 170.607 33.1273 170.75 33.1273C170.75 33.4427 171.338 33.6606 172.513 33.7809V33.8665L172.418 34.0553C172.922 34.0553 173.232 34.1156 173.347 34.2359H173.622L174.181 34.1499L174.361 34.2359C175.25 34.1614 176.02 34.0703 176.674 33.9611C176.674 34.024 176.706 34.0553 176.769 34.0553C177.99 33.9068 179.225 33.5973 180.474 33.1273C180.87 33.0361 181.211 32.635 181.497 31.9249H182.142L182.331 31.2802V30.9968C182.331 30.8534 183.094 29.7225 182.904 29.3159V29.3159Z" fill="#1D1D1F"/>
</g>
<defs>
<clipPath id="clip0_10_165">
<rect width="209" height="48" fill="white"/>
</clipPath>
</defs>
</svg>
