<svg width="22" height="22" viewBox="0 0 22 22" fill="none" xmlns="http://www.w3.org/2000/svg">
<path fill-rule="evenodd" clip-rule="evenodd" d="M20.4029 11.2225C20.8186 11.2225 21.1555 10.8856 21.1555 10.4699C21.1555 5.06637 16.9368 0.847656 11.5333 0.847656C11.1176 0.847656 10.7807 1.18461 10.7807 1.60027C10.7807 2.01593 11.1176 2.35288 11.5333 2.35288C16.1055 2.35288 19.6503 5.89768 19.6503 10.4699C19.6503 10.8856 19.9873 11.2225 20.4029 11.2225ZM8.87213 8.51862C9.75387 7.63688 9.75387 6.20729 8.87213 5.32555L6.74342 3.19682C5.86168 2.31508 4.43209 2.31508 3.55035 3.19682L1.50897 5.23821C1.06341 5.68376 0.824317 6.29524 0.849456 6.92485C0.976769 10.1111 2.60098 13.2458 5.67906 16.3239C8.75713 19.402 11.8919 21.0262 15.0781 21.1535C15.7077 21.1787 16.3192 20.9396 16.7647 20.494L18.8061 18.4526C19.6879 17.5709 19.6879 16.1413 18.8061 15.2595L16.6774 13.1308C15.7957 12.2491 14.3661 12.2491 13.4843 13.1308L12.3368 14.2784C12.2474 14.3678 12.1053 14.3767 12.0054 14.299L11.1081 13.6011C10.0972 12.8148 9.18812 11.9058 8.40185 10.8948L7.70397 9.99756C7.62629 9.89769 7.63514 9.75561 7.7246 9.66615L8.87213 8.51862ZM2.5734 6.30244L4.61478 4.26106C4.90869 3.96715 5.38522 3.96715 5.67913 4.26106L7.80784 6.38978C8.10176 6.6837 8.10176 7.16023 7.80784 7.45414L6.66031 8.60167C6.03407 9.22792 5.97215 10.2225 6.51588 10.9216L7.21377 11.8188C8.07675 12.9284 9.07452 13.9262 10.1841 14.7891L11.0814 15.487C11.7804 16.0308 12.775 15.9688 13.4012 15.3426L14.5488 14.1951C14.8427 13.9012 15.3192 13.9012 15.6131 14.1951L17.7419 16.3238C18.0358 16.6177 18.0358 17.0942 17.7419 17.3881L15.7004 19.4295C15.5519 19.578 15.3481 19.6577 15.1382 19.6494C12.3704 19.5388 9.57384 18.0898 6.74349 15.2594C3.91312 12.4291 2.46415 9.63253 2.35356 6.86466C2.34518 6.6548 2.42488 6.45096 2.5734 6.30244ZM17.9622 10.8247C17.9622 11.2404 17.6252 11.5773 17.2096 11.5773C16.7939 11.5773 16.4569 11.2404 16.4569 10.8247C16.4569 8.19222 13.8107 5.54597 11.1782 5.54597C10.7625 5.54597 10.4256 5.20902 10.4256 4.79336C10.4256 4.3777 10.7625 4.04075 11.1782 4.04075C14.642 4.04075 17.9622 7.36091 17.9622 10.8247Z" fill="#FF6633"/>
</svg>
